<svg xmlns="http://www.w3.org/2000/svg" width="300" height="300" class="bubble"><defs><pattern id="hash-warning" patternUnits="userSpaceOnUse" width="4" height="4"><path d="M-1,1 l2,-2 M0,4 l4,-4 M3,5 l2,-2" stroke="#000000" stroke-width="1"/></pattern><pattern id="hash-critical" patternUnits="userSpaceOnUse" width="4" height="4"><path d="M-1,1 l2,-2 M0,4 l4,-4 M3,5 l2,-2" stroke="#000000" stroke-width="3"/></pattern><pattern id="hash-good" patternUnits="userSpaceOnUse" width="5" height="5"><circle cx="2" cy="2" r="2" style="stroke:none;fill:#eee"/></pattern></defs><g class="node"><circle r="72.7637753659108" x="43065.87788548328" y="66176.27903531429" transform="translate(144.02969192469322,221.3220034625896)" style="fill: rgb(120, 186, 0); stroke-width: 0; stroke: rgb(0, 0, 0);"/></g><g class="node"><circle r="27.50212201033827" x="73492.25236246466" y="66176.27903531429" transform="translate(245.7901416804838,221.3220034625896)" style="fill: rgb(120, 186, 0); stroke-width: 0; stroke: rgb(0, 0, 0);"/></g><g class="node"><circle r="27.50212201033827" x="68802.60089817854" y="49947.1277210494" transform="translate(230.1056886226707,167.0439054215699)" style="fill: rgb(120, 186, 0); stroke-width: 0; stroke: rgb(0, 0, 0);"/></g><g class="node"><circle r="72.7637753659108" x="53713.746441054136" y="23525.720964685708" transform="translate(179.6412924449971,78.6779965374104)" style="fill: rgb(120, 186, 0); stroke-width: 0; stroke: rgb(0, 0, 0);"/></g><g class="node"><circle r="27.50212201033827" x="27977.02342835886" y="39754.8722789506" transform="translate(93.5652957470196,132.9560945784301)" style="fill: rgb(120, 186, 0); stroke-width: 0; stroke: rgb(0, 0, 0);"/></g><g class="node"><circle r="27.50212201033827" x="16209.747637535347" y="51875.49122768774" transform="translate(54.209858319516215,173.49328169795228)" style="fill: rgb(120, 186, 0); stroke-width: 0; stroke: rgb(0, 0, 0);"/></g></svg>